<svg xmlns="http://www.w3.org/2000/svg" width="622" height="139" viewBox="0 0 622 139"><g fill="none" fill-rule="evenodd"><path fill="#0091FF" d="M176 0c16.569 0 30 13.431 30 30v47.302a33.59 33.59 0 0 0-4.5-.302c-18.457 0-33.5 15.043-33.5 33.5a33.5 33.5 0 0 0 .846 7.5H30c-16.569 0-30-13.431-30-30V30C0 13.431 13.431 0 30 0h146z"/><path fill="#FFF" fill-rule="nonzero" d="M58.75 83.809c13.148 0 21.234-6.82 21.234-17.403V35.012H65.22v29.32c0 5.203-2.778 7.383-6.469 7.383-3.727 0-6.469-2.074-6.469-7.383v-29.32H37.516v31.394c0 10.582 8.086 17.403 21.234 17.403zM103.192 83V67.004h3.692L114.583 83h16.207l-9.422-17.86c2.707-1.23 8.402-5.66 8.402-13.605 0-9.914-6.468-16.523-19.02-16.523H88.744V83h14.45zm5.309-25.84h-5.309V45.594h5.309c3.094 0 6.047 1.933 6.047 5.87 0 3.903-2.813 5.696-6.047 5.696zM169.22 83V70.906h-17.614V35.012h-14.766V83h32.38z"/><path fill="#434C50" fill-rule="nonzero" d="M250.57 84.809c14.063 0 20.778-6.82 20.778-16.172 0-9.914-6.891-13.325-13.536-14.309l-6.152-.95c-3.902-.597-6.258-1.651-6.258-3.726 0-2.039 1.582-3.761 5.344-3.761 4.254 0 6.188 2.53 6.258 4.535h13.36c0-7.489-6.083-15.188-19.653-15.188-11.953 0-19.934 5.696-19.934 15.61 0 8.894 5.73 12.867 13.641 14.273l5.8 1.02c4.325.773 6.716 1.617 6.716 4.078 0 1.969-1.547 3.761-6.047 3.761-4.606 0-6.961-2.425-7.032-4.675h-13.851c.035 7.382 4.816 15.504 20.566 15.504zM293.29 84V36.012h-14.766V84h14.766zm29.676.809c15.293 0 21.059-9.528 21.059-18.95v-9h-19.793v9.774h5.977v.562c0 2.778-2.18 5.801-6.82 5.801-6.47 0-7.84-5.203-7.84-10.582v-5.062c0-6.645 2.53-10.301 7.453-10.301 4.253 0 6.503 2.707 6.785 5.52h14.238c0-8.403-6.54-17.333-20.918-17.333-14.766 0-22.5 9.352-22.5 21.938v5.308c0 11.743 6.188 22.325 22.36 22.325zM364.877 84V60.375h.563L381.893 84h10.969V36.012h-13.535v23.203h-.563l-16.348-23.203h-11.074V84h13.535zm47.818 0l2.144-9.07h13.113l2.075 9.07h15.75l-14.414-47.988h-18.704L398.105 84h14.59zm12.902-19.441h-8.332l3.867-16.348h.738l3.727 16.348zM470.32 84V47.824h12.2V36.012h-39.165v11.812h12.2V84h14.765zm38.396.809c13.148 0 21.234-6.82 21.234-17.403V36.012h-14.766v29.32c0 5.203-2.777 7.383-6.468 7.383-3.727 0-6.47-2.074-6.47-7.383v-29.32h-14.765v31.394c0 10.582 8.086 17.403 21.235 17.403zM553.158 84V68.004h3.691L564.55 84h16.206l-9.421-17.86c2.707-1.23 8.402-5.66 8.402-13.605 0-9.914-6.469-16.523-19.02-16.523H538.71V84h14.449zm5.308-25.84h-5.308V46.594h5.308c3.094 0 6.047 1.933 6.047 5.87 0 3.903-2.812 5.696-6.047 5.696zM621.014 84V72.645h-19.617V65.19h18.316V54.926h-18.316v-7.559h19.617V36.012h-34.207V84h34.207z"/><path fill="#0091FF" fill-rule="nonzero" d="M201.5 139c15.702 0 28.5-12.77 28.5-28.5 0-15.702-12.798-28.5-28.5-28.5S173 94.798 173 110.5c0 15.73 12.798 28.5 28.5 28.5zm6.361-16h-12.694c-2.111 0-3.167-.995-3.167-3.226v-9.303c0-1.614.611-2.609 1.806-2.985v-2.312c0-4.867 3.138-8.174 7.694-8.174 4.611 0 7.722 3.307 7.722 8.174v2.339c1.167.35 1.778 1.344 1.778 2.958v9.303c0 2.231-1.028 3.226-3.139 3.226zM204 108v-2.435c0-2.232-.954-3.565-2.526-3.565-1.52 0-2.474 1.362-2.474 3.565V108h5z"/></g></svg>